<mxfile host="app.diagrams.net" modified="2023-08-15T12:11:09.265Z" agent="Mozilla/5.0 (Macintosh; Intel Mac OS X 10_15_7) AppleWebKit/537.36 (KHTML, like Gecko) Chrome/115.0.0.0 Safari/537.36" etag="1D6YtE6oI4Z3Wm8YrByJ" version="21.6.8" type="github">
  <diagram name="Page-1" id="H_KykW4E5UvxU0qGmPJh">
    <mxGraphModel dx="2417" dy="975" grid="1" gridSize="10" guides="1" tooltips="1" connect="1" arrows="1" fold="1" page="1" pageScale="1" pageWidth="827" pageHeight="1169" math="0" shadow="0">
      <root>
        <mxCell id="0" />
        <mxCell id="1" parent="0" />
        <mxCell id="XIs9cq68sSniHcVECA6f-36" value="" style="endArrow=classic;html=1;rounded=0;strokeWidth=2;entryX=0;entryY=0.5;entryDx=0;entryDy=0;" edge="1" parent="1" target="XIs9cq68sSniHcVECA6f-19">
          <mxGeometry width="50" height="50" relative="1" as="geometry">
            <mxPoint x="-335" y="700" as="sourcePoint" />
            <mxPoint x="265" y="680" as="targetPoint" />
            <Array as="points">
              <mxPoint x="-245" y="700" />
              <mxPoint x="-245" y="630" />
              <mxPoint x="-35" y="630" />
              <mxPoint x="-35" y="700" />
            </Array>
          </mxGeometry>
        </mxCell>
        <mxCell id="XIs9cq68sSniHcVECA6f-35" value="" style="endArrow=classic;html=1;rounded=0;entryX=0;entryY=0.5;entryDx=0;entryDy=0;strokeWidth=2;" edge="1" parent="1" target="XIs9cq68sSniHcVECA6f-3">
          <mxGeometry width="50" height="50" relative="1" as="geometry">
            <mxPoint x="-335" y="540" as="sourcePoint" />
            <mxPoint x="-285" y="500" as="targetPoint" />
            <Array as="points">
              <mxPoint x="-245" y="540" />
              <mxPoint x="-245" y="610" />
              <mxPoint x="-35" y="610" />
              <mxPoint x="-35" y="540" />
            </Array>
          </mxGeometry>
        </mxCell>
        <mxCell id="XIs9cq68sSniHcVECA6f-25" value="" style="rounded=0;whiteSpace=wrap;html=1;fillColor=none;dashed=1;" vertex="1" parent="1">
          <mxGeometry x="-95" y="400" width="640" height="410" as="geometry" />
        </mxCell>
        <mxCell id="XIs9cq68sSniHcVECA6f-22" value="" style="rounded=0;whiteSpace=wrap;html=1;fillColor=none;dashed=1;" vertex="1" parent="1">
          <mxGeometry x="147" y="420" width="378" height="370" as="geometry" />
        </mxCell>
        <mxCell id="XIs9cq68sSniHcVECA6f-6" value="CloudFlare Tunnel&#xa;Client" style="shape=image;verticalLabelPosition=bottom;labelBackgroundColor=default;verticalAlign=top;aspect=fixed;imageAspect=0;image=https://external-content.duckduckgo.com/iu/?u=https%3A%2F%2Ftse1.mm.bing.net%2Fth%3Fid%3DOIP.iEFazaCaTL2dh1Q8O6eBgAAAAA%26pid%3DApi&amp;f=1&amp;ipt=5c9d1060135ae01b7491f02ac6a6c13f13519b04248dab88ae3f69c7723dcfb1&amp;ipo=images;" vertex="1" parent="1">
          <mxGeometry x="185" y="518" width="44" height="44" as="geometry" />
        </mxCell>
        <mxCell id="XIs9cq68sSniHcVECA6f-13" value="ArgoCD" style="shape=image;verticalLabelPosition=bottom;labelBackgroundColor=default;verticalAlign=top;aspect=fixed;imageAspect=0;image=https://argo-cd.readthedocs.io/en/stable/assets/logo.png;" vertex="1" parent="1">
          <mxGeometry x="445" y="618" width="60" height="60" as="geometry" />
        </mxCell>
        <mxCell id="XIs9cq68sSniHcVECA6f-3" value="Ingress Controller" style="shape=image;verticalLabelPosition=bottom;labelBackgroundColor=default;verticalAlign=top;aspect=fixed;imageAspect=0;image=https://docs.konghq.com/assets/images/logos/kong-logo-blue.svg;" vertex="1" parent="1">
          <mxGeometry x="315" y="527.23" width="84" height="27.77" as="geometry" />
        </mxCell>
        <mxCell id="XIs9cq68sSniHcVECA6f-17" value="Apps" style="sketch=0;html=1;dashed=0;whitespace=wrap;fillColor=#2875E2;strokeColor=#ffffff;points=[[0.005,0.63,0],[0.1,0.2,0],[0.9,0.2,0],[0.5,0,0],[0.995,0.63,0],[0.72,0.99,0],[0.5,1,0],[0.28,0.99,0]];verticalLabelPosition=bottom;align=center;verticalAlign=top;shape=mxgraph.kubernetes.icon;prIcon=deploy" vertex="1" parent="1">
          <mxGeometry x="385" y="710" width="50" height="48" as="geometry" />
        </mxCell>
        <mxCell id="XIs9cq68sSniHcVECA6f-19" value="Wireguard Server" style="shape=image;verticalLabelPosition=bottom;labelBackgroundColor=default;verticalAlign=top;aspect=fixed;imageAspect=0;image=https://external-content.duckduckgo.com/iu/?u=https%3A%2F%2Ftse1.mm.bing.net%2Fth%3Fid%3DOIP.5P8iU2icZDcIgsnBtRYRmgHaHa%26pid%3DApi&amp;f=1&amp;ipt=2f43e05585307ce60f0bcf9a6ea546b7620b22d63e94e0ca94406f149e85ab39&amp;ipo=images;" vertex="1" parent="1">
          <mxGeometry x="265" y="678" width="44" height="44" as="geometry" />
        </mxCell>
        <mxCell id="XIs9cq68sSniHcVECA6f-21" value="" style="shape=image;verticalLabelPosition=bottom;labelBackgroundColor=default;verticalAlign=top;aspect=fixed;imageAspect=0;image=https://k3s.io/img/k3s-logo-light.svg;" vertex="1" parent="1">
          <mxGeometry x="151" y="423.20000000000005" width="90" height="34.8" as="geometry" />
        </mxCell>
        <mxCell id="XIs9cq68sSniHcVECA6f-26" value="" style="shape=image;verticalLabelPosition=bottom;labelBackgroundColor=default;verticalAlign=top;aspect=fixed;imageAspect=0;image=https://external-content.duckduckgo.com/iu/?u=https%3A%2F%2Ftse1.mm.bing.net%2Fth%3Fid%3DOIP.FqHzvDRjZk_uBuSQLqdJCwHaHD%26pid%3DApi&amp;f=1&amp;ipt=06124bfa807fdc28aa550efff666c93667467c797e689aca70e63f5119e07813&amp;ipo=images;" vertex="1" parent="1">
          <mxGeometry x="-91" y="404.15" width="64" height="60.9" as="geometry" />
        </mxCell>
        <mxCell id="XIs9cq68sSniHcVECA6f-27" value="LXC" style="shape=image;verticalLabelPosition=bottom;labelBackgroundColor=default;verticalAlign=top;aspect=fixed;imageAspect=0;image=https://external-content.duckduckgo.com/iu/?u=https%3A%2F%2Ftse2.mm.bing.net%2Fth%3Fid%3DOIP.Lsu7KXMmZafRflkJ8YROFQHaHa%26pid%3DApi&amp;f=1&amp;ipt=99455bb730ebe719cea16fe68b7ef005a010bff9ceb0801b572c16989d895d73&amp;ipo=images;" vertex="1" parent="1">
          <mxGeometry x="25" y="420" width="74" height="74" as="geometry" />
        </mxCell>
        <mxCell id="XIs9cq68sSniHcVECA6f-29" value="Home Router&lt;br&gt;OPNsense" style="image;html=1;image=img/lib/clip_art/networking/Router_128x128.png" vertex="1" parent="1">
          <mxGeometry x="-205" y="580" width="70" height="80" as="geometry" />
        </mxCell>
        <mxCell id="XIs9cq68sSniHcVECA6f-30" value="AWS EC2&lt;br&gt;Wireguard Server" style="outlineConnect=0;dashed=0;verticalLabelPosition=bottom;verticalAlign=top;align=center;html=1;shape=mxgraph.aws3.ec2;fillColor=#F58534;gradientColor=none;" vertex="1" parent="1">
          <mxGeometry x="-381" y="670" width="46.5" height="60" as="geometry" />
        </mxCell>
        <mxCell id="XIs9cq68sSniHcVECA6f-31" value="CloudFlare Tunnel&#xa;Server" style="shape=image;verticalLabelPosition=bottom;labelBackgroundColor=default;verticalAlign=top;aspect=fixed;imageAspect=0;image=https://external-content.duckduckgo.com/iu/?u=https%3A%2F%2Ftse1.mm.bing.net%2Fth%3Fid%3DOIP.iEFazaCaTL2dh1Q8O6eBgAAAAA%26pid%3DApi&amp;f=1&amp;ipt=5c9d1060135ae01b7491f02ac6a6c13f13519b04248dab88ae3f69c7723dcfb1&amp;ipo=images;" vertex="1" parent="1">
          <mxGeometry x="-381" y="522" width="44" height="44" as="geometry" />
        </mxCell>
        <mxCell id="XIs9cq68sSniHcVECA6f-33" value="&lt;b&gt;HomeLab&lt;/b&gt;" style="text;html=1;strokeColor=none;fillColor=none;align=center;verticalAlign=middle;whiteSpace=wrap;rounded=0;" vertex="1" parent="1">
          <mxGeometry x="-207" y="820" width="60" height="30" as="geometry" />
        </mxCell>
        <mxCell id="XIs9cq68sSniHcVECA6f-37" value="" style="verticalLabelPosition=bottom;html=1;verticalAlign=top;align=center;strokeColor=none;fillColor=#00BEF2;shape=mxgraph.azure.mobile;pointerEvents=1;" vertex="1" parent="1">
          <mxGeometry x="-530" y="580" width="50" height="90" as="geometry" />
        </mxCell>
        <mxCell id="XIs9cq68sSniHcVECA6f-39" value="" style="endArrow=classic;html=1;rounded=0;exitX=0.5;exitY=1;exitDx=0;exitDy=0;exitPerimeter=0;strokeWidth=2;" edge="1" parent="1" source="XIs9cq68sSniHcVECA6f-37">
          <mxGeometry width="50" height="50" relative="1" as="geometry">
            <mxPoint x="-555" y="740" as="sourcePoint" />
            <mxPoint x="-385" y="700" as="targetPoint" />
            <Array as="points">
              <mxPoint x="-505" y="700" />
            </Array>
          </mxGeometry>
        </mxCell>
        <mxCell id="XIs9cq68sSniHcVECA6f-42" value="VPN" style="edgeLabel;html=1;align=center;verticalAlign=middle;resizable=0;points=[];" vertex="1" connectable="0" parent="XIs9cq68sSniHcVECA6f-39">
          <mxGeometry x="0.1086" y="-1" relative="1" as="geometry">
            <mxPoint as="offset" />
          </mxGeometry>
        </mxCell>
        <mxCell id="XIs9cq68sSniHcVECA6f-40" value="" style="endArrow=classic;html=1;rounded=0;exitX=0.5;exitY=0;exitDx=0;exitDy=0;exitPerimeter=0;strokeWidth=2;" edge="1" parent="1" source="XIs9cq68sSniHcVECA6f-37">
          <mxGeometry width="50" height="50" relative="1" as="geometry">
            <mxPoint x="-575" y="570" as="sourcePoint" />
            <mxPoint x="-385" y="540" as="targetPoint" />
            <Array as="points">
              <mxPoint x="-505" y="540" />
            </Array>
          </mxGeometry>
        </mxCell>
        <mxCell id="XIs9cq68sSniHcVECA6f-41" value="web" style="edgeLabel;html=1;align=center;verticalAlign=middle;resizable=0;points=[];" vertex="1" connectable="0" parent="XIs9cq68sSniHcVECA6f-40">
          <mxGeometry x="0.2" y="-1" relative="1" as="geometry">
            <mxPoint as="offset" />
          </mxGeometry>
        </mxCell>
        <mxCell id="XIs9cq68sSniHcVECA6f-43" value="" style="shape=image;verticalLabelPosition=bottom;labelBackgroundColor=default;verticalAlign=top;aspect=fixed;imageAspect=0;image=https://external-content.duckduckgo.com/iu/?u=https%3A%2F%2Ftse1.mm.bing.net%2Fth%3Fid%3DOIP.5P8iU2icZDcIgsnBtRYRmgHaHa%26pid%3DApi&amp;f=1&amp;ipt=2f43e05585307ce60f0bcf9a6ea546b7620b22d63e94e0ca94406f149e85ab39&amp;ipo=images;" vertex="1" parent="1">
          <mxGeometry x="-368" y="659" width="44" height="44" as="geometry" />
        </mxCell>
        <mxCell id="XIs9cq68sSniHcVECA6f-44" value="&lt;b&gt;Public Network&lt;/b&gt;" style="text;html=1;strokeColor=none;fillColor=none;align=center;verticalAlign=middle;whiteSpace=wrap;rounded=0;" vertex="1" parent="1">
          <mxGeometry x="-276" y="820" width="60" height="30" as="geometry" />
        </mxCell>
        <mxCell id="XIs9cq68sSniHcVECA6f-45" value="" style="endArrow=none;dashed=1;html=1;rounded=0;" edge="1" parent="1">
          <mxGeometry width="50" height="50" relative="1" as="geometry">
            <mxPoint x="-215" y="860" as="sourcePoint" />
            <mxPoint x="-215" y="360" as="targetPoint" />
          </mxGeometry>
        </mxCell>
      </root>
    </mxGraphModel>
  </diagram>
</mxfile>
